<svg width="140" height="27" viewBox="0 0 140 27" fill="none" xmlns="http://www.w3.org/2000/svg">
    <path d="M14.4629 21H10.6152L4.4043 10.1992H4.31641C4.4401 12.1068 4.50195 13.4674 4.50195 14.2812V21H1.79688V6.72266H5.61523L11.8164 17.416H11.8848C11.7871 15.5605 11.7383 14.2487 11.7383 13.4805V6.72266H14.4629V21ZM22.3535 11.9961C21.722 11.9961 21.2272 12.1979 20.8691 12.6016C20.5111 12.9987 20.306 13.5651 20.2539 14.3008H24.4336C24.4206 13.5651 24.2285 12.9987 23.8574 12.6016C23.4863 12.1979 22.985 11.9961 22.3535 11.9961ZM22.7734 21.1953C21.0156 21.1953 19.6419 20.7103 18.6523 19.7402C17.6628 18.7702 17.168 17.3965 17.168 15.6191C17.168 13.7897 17.6237 12.377 18.5352 11.3809C19.4531 10.3783 20.7194 9.87695 22.334 9.87695C23.877 9.87695 25.0781 10.3164 25.9375 11.1953C26.7969 12.0742 27.2266 13.2884 27.2266 14.8379V16.2832H20.1855C20.2181 17.1296 20.4688 17.7904 20.9375 18.2656C21.4062 18.7409 22.0638 18.9785 22.9102 18.9785C23.5677 18.9785 24.1895 18.9102 24.7754 18.7734C25.3613 18.6367 25.9733 18.4186 26.6113 18.1191V20.4238C26.0905 20.6842 25.5339 20.8763 24.9414 21C24.349 21.1302 23.6263 21.1953 22.7734 21.1953ZM38.623 21L37.7832 17.1816L36.6504 12.3574H36.582L34.5898 21H31.3867L28.2812 10.082H31.25L32.5098 14.916C32.7116 15.7819 32.9167 16.9766 33.125 18.5H33.1836C33.2096 18.0052 33.3236 17.2207 33.5254 16.1465L33.6816 15.3164L35.0293 10.082H38.3105L39.5898 15.3164C39.6159 15.4596 39.6549 15.6712 39.707 15.9512C39.7656 16.2311 39.821 16.5306 39.873 16.8496C39.9251 17.1621 39.9707 17.4714 40.0098 17.7773C40.0553 18.0768 40.0814 18.3177 40.0879 18.5H40.1465C40.2051 18.0312 40.3092 17.39 40.459 16.5762C40.6087 15.7559 40.7161 15.2025 40.7812 14.916L42.0898 10.082H45.0098L41.8652 21H38.623ZM55.2344 13.4414H56.2305C57.1615 13.4414 57.8581 13.2591 58.3203 12.8945C58.7826 12.5234 59.0137 11.9863 59.0137 11.2832C59.0137 10.5736 58.8184 10.0495 58.4277 9.71094C58.0436 9.3724 57.4382 9.20312 56.6113 9.20312H55.2344V13.4414ZM62.0703 11.1758C62.0703 12.7122 61.5885 13.8874 60.625 14.7012C59.668 15.515 58.304 15.9219 56.5332 15.9219H55.2344V21H52.207V6.72266H56.7676C58.4993 6.72266 59.8145 7.09701 60.7129 7.8457C61.6178 8.58789 62.0703 9.69792 62.0703 11.1758ZM70.625 9.87695C71.0286 9.87695 71.3639 9.90625 71.6309 9.96484L71.4062 12.7578C71.1654 12.6927 70.8724 12.6602 70.5273 12.6602C69.5768 12.6602 68.8346 12.9043 68.3008 13.3926C67.7734 13.8809 67.5098 14.5645 67.5098 15.4434V21H64.5312V10.082H66.7871L67.2266 11.918H67.373C67.7116 11.306 68.1673 10.8145 68.7402 10.4434C69.3197 10.0658 69.9479 9.87695 70.625 9.87695ZM75.9863 15.5215C75.9863 16.6022 76.1621 17.4193 76.5137 17.9727C76.8717 18.526 77.4512 18.8027 78.252 18.8027C79.0462 18.8027 79.6159 18.5293 79.9609 17.9824C80.3125 17.429 80.4883 16.6087 80.4883 15.5215C80.4883 14.4408 80.3125 13.6302 79.9609 13.0898C79.6094 12.5495 79.0332 12.2793 78.2324 12.2793C77.4382 12.2793 76.8652 12.5495 76.5137 13.0898C76.1621 13.6237 75.9863 14.4342 75.9863 15.5215ZM83.5352 15.5215C83.5352 17.2988 83.0664 18.6888 82.1289 19.6914C81.1914 20.694 79.8861 21.1953 78.2129 21.1953C77.1647 21.1953 76.2402 20.9674 75.4395 20.5117C74.6387 20.0495 74.0234 19.3887 73.5938 18.5293C73.1641 17.6699 72.9492 16.6673 72.9492 15.5215C72.9492 13.7376 73.4147 12.3509 74.3457 11.3613C75.2767 10.3717 76.5853 9.87695 78.2715 9.87695C79.3197 9.87695 80.2441 10.1048 81.0449 10.5605C81.8457 11.0163 82.4609 11.6706 82.8906 12.5234C83.3203 13.3763 83.5352 14.3757 83.5352 15.5215ZM89.4531 21.1953C88.1706 21.1953 87.1615 20.6973 86.4258 19.7012C85.6966 18.7051 85.332 17.3249 85.332 15.5605C85.332 13.7702 85.7031 12.377 86.4453 11.3809C87.194 10.3783 88.2227 9.87695 89.5312 9.87695C90.9049 9.87695 91.9531 10.4108 92.6758 11.4785H92.7734C92.6237 10.6647 92.5488 9.9388 92.5488 9.30078V5.80469H95.5371V21H93.252L92.6758 19.584H92.5488C91.8717 20.6582 90.8398 21.1953 89.4531 21.1953ZM90.498 18.8223C91.2598 18.8223 91.8164 18.6009 92.168 18.1582C92.526 17.7155 92.7214 16.9635 92.7539 15.9023V15.5801C92.7539 14.4082 92.5716 13.5684 92.207 13.0605C91.849 12.5527 91.263 12.2988 90.4492 12.2988C89.7852 12.2988 89.2676 12.582 88.8965 13.1484C88.5319 13.7083 88.3496 14.5254 88.3496 15.5996C88.3496 16.6738 88.5352 17.4811 88.9062 18.0215C89.2773 18.5553 89.8079 18.8223 90.498 18.8223ZM106.387 21L105.986 19.6035H105.83C105.511 20.1113 105.059 20.5052 104.473 20.7852C103.887 21.0586 103.219 21.1953 102.471 21.1953C101.188 21.1953 100.221 20.8535 99.5703 20.1699C98.9193 19.4798 98.5938 18.4902 98.5938 17.2012V10.082H101.572V16.459C101.572 17.2467 101.712 17.8392 101.992 18.2363C102.272 18.627 102.718 18.8223 103.33 18.8223C104.163 18.8223 104.766 18.5456 105.137 17.9922C105.508 17.4323 105.693 16.5078 105.693 15.2188V10.082H108.672V21H106.387ZM116.23 21.1953C112.832 21.1953 111.133 19.3301 111.133 15.5996C111.133 13.7441 111.595 12.3281 112.52 11.3516C113.444 10.3685 114.769 9.87695 116.494 9.87695C117.757 9.87695 118.89 10.1243 119.893 10.6191L119.014 12.9238C118.545 12.735 118.109 12.582 117.705 12.4648C117.301 12.3411 116.898 12.2793 116.494 12.2793C114.945 12.2793 114.17 13.3796 114.17 15.5801C114.17 17.7155 114.945 18.7832 116.494 18.7832C117.067 18.7832 117.598 18.7083 118.086 18.5586C118.574 18.4023 119.062 18.1615 119.551 17.8359V20.3848C119.069 20.6908 118.581 20.9023 118.086 21.0195C117.598 21.1367 116.979 21.1953 116.23 21.1953ZM126.689 18.8223C127.21 18.8223 127.835 18.7083 128.564 18.4805V20.6973C127.822 21.0293 126.911 21.1953 125.83 21.1953C124.639 21.1953 123.77 20.8958 123.223 20.2969C122.682 19.6914 122.412 18.7865 122.412 17.582V12.3184H120.986V11.0586L122.627 10.0625L123.486 7.75781H125.391V10.082H128.447V12.3184H125.391V17.582C125.391 18.0052 125.508 18.3177 125.742 18.5195C125.983 18.7214 126.299 18.8223 126.689 18.8223ZM138.398 17.7578C138.398 18.8776 138.008 19.7305 137.227 20.3164C136.452 20.9023 135.29 21.1953 133.74 21.1953C132.946 21.1953 132.269 21.14 131.709 21.0293C131.149 20.9251 130.625 20.7689 130.137 20.5605V18.0996C130.69 18.36 131.312 18.5781 132.002 18.7539C132.699 18.9297 133.311 19.0176 133.838 19.0176C134.919 19.0176 135.459 18.7051 135.459 18.0801C135.459 17.8457 135.387 17.6569 135.244 17.5137C135.101 17.3639 134.854 17.1979 134.502 17.0156C134.15 16.8268 133.682 16.6087 133.096 16.3613C132.256 16.0098 131.637 15.6842 131.24 15.3848C130.85 15.0853 130.563 14.7435 130.381 14.3594C130.205 13.9688 130.117 13.4902 130.117 12.9238C130.117 11.9538 130.492 11.2051 131.24 10.6777C131.995 10.1439 133.063 9.87695 134.443 9.87695C135.758 9.87695 137.038 10.1634 138.281 10.7363L137.383 12.8848C136.836 12.6504 136.325 12.4583 135.85 12.3086C135.374 12.1589 134.889 12.084 134.395 12.084C133.516 12.084 133.076 12.3216 133.076 12.7969C133.076 13.0638 133.216 13.2949 133.496 13.4902C133.783 13.6855 134.404 13.9753 135.361 14.3594C136.214 14.7044 136.839 15.0267 137.236 15.3262C137.633 15.6257 137.926 15.9707 138.115 16.3613C138.304 16.752 138.398 17.2174 138.398 17.7578Z" fill="#252837"/>
</svg>
